# xmcd
#
# Track frame offsets:
#	150
#	15770
#	27089
#	46737
#	57268
#	71072
#	80473
#	101441
#	114955
#	130991
#	147384
#	165381
#	185833
#	207163
#	220830
#	238582
#	249923
#	261954
#	282505
#	294577
#	311819
#	327522
#
# Disc length: 4541 seconds
#
# Revision: 0
# Processed by: cddbd v1.5PL3 Copyright (c) Steve Scherf et al.
# Submitted via: dBpowerAMP V4.0
#
DISCID=4011bb16
DTITLE=Willie Nelson - His All-Time Greatest Hits
DYEAR=1900
DGENRE=Country
TTITLE0=Mammas Don't Let Your Babies Grow Up To Be Cowboys (with Waylon Jennings)
TTITLE1=On The Road Again
TTITLE2=Georgia On My Mind
TTITLE3=Blue Eyes Crying In The Rain
TTITLE4=My Heroes Have Always Been Cowboys
TTITLE5=If You've Got The Money I've Got The Time
TTITLE6=Uncloudy Day
TTITLE7=Good Hearted Woman (with Waylon Jennings)
TTITLE8=Always On My Mind
TTITLE9=To All The Girls I've Loved Before (with Julio Iglesias)
TTITLE10=Help Me Make It Through The Night
TTITLE11=Angels Flying Too Close To The Ground
TTITLE12=City Of New Orleans
TTITLE13=Heartbreak Hotel
TTITLE14=Whiskey River
TTITLE15=Heartache Of A Fool
TTITLE16=Texas On A Saturday Night [Live]
TTITLE17=Ghost Riders In The Sky [Live] (with Johnny Cash)
TTITLE18=Railroad Lady
TTITLE19=Faded Love (with Bob Wills)
TTITLE20=Stay A Little Longer
TTITLE21=Jim (with Johnny Cash)
EXTD=
EXTT0=
EXTT1=
EXTT2=
EXTT3=
EXTT4=
EXTT5=
EXTT6=
EXTT7=
EXTT8=
EXTT9=
EXTT10=
EXTT11=
EXTT12=
EXTT13=
EXTT14=
EXTT15=
EXTT16=
EXTT17=
EXTT18=
EXTT19=
EXTT20=
EXTT21=
PLAYORDER=
